<svg width="180" height="180" viewBox="0 0 180 180" fill="none" xmlns="http://www.w3.org/2000/svg">
<rect width="180" height="180" fill="#FDD100"/>
<path d="M131.369 61.9443L131.37 61.9443C135.234 61.9447 138.051 63.3793 140.155 65.7643C142.144 68.0191 143.515 71.1468 144.489 74.7831L144.679 75.5175C147.414 86.522 147.519 94.7202 144.687 103.218L144.687 103.219C143.293 107.405 141.873 110.809 139.845 113.168C137.846 115.493 135.234 116.826 131.366 116.826L89.539 116.823L89.5387 121.316L117.09 121.318L117.09 131.315C117.089 135.122 115.454 137.988 112.964 140.162C110.459 142.348 107.087 143.833 103.654 144.823C93.3174 147.816 85.0437 147.368 76.4033 144.822L76.4023 144.822C69.1528 142.694 62.9675 138.407 62.9677 131.312L62.9696 105.097C62.9702 97.8098 69.0045 91.607 76.2654 91.6074L103.816 91.6094C113.273 91.61 121.532 83.3972 121.532 73.6477L121.533 61.9241L131.369 61.9443ZM105.543 127.321C102.418 127.321 99.8556 129.88 99.8748 133.04C99.8746 136.191 102.408 138.799 105.542 138.799C108.676 138.799 111.212 136.212 111.212 133.041C111.212 129.884 108.673 127.322 105.543 127.321Z" fill="#E2242B" stroke="#9B0101"/>
<path d="M89.4726 32.505C93.8517 32.487 98.4184 32.7945 102.85 33.4756L103.734 33.6173C111.058 34.8271 117.111 40.2891 117.11 47.4288L117.108 73.6231C117.108 81.0469 111.192 87.1127 103.813 87.1124L76.2803 87.1105C66.6693 87.11 58.566 95.3587 58.5652 104.719L58.5643 116.797L49.5917 116.796C45.7175 116.796 42.6682 115.397 40.3429 113.023C38.0065 110.638 36.3788 107.243 35.4198 103.228L35.4198 103.227C34.1092 97.7759 33.4835 93.4469 33.496 89.1856C33.5084 84.9244 34.1582 80.7082 35.4208 75.4816L35.4217 75.4797C37.5481 66.5696 44.3564 61.914 52.1502 61.9144L90.578 61.9172L90.5783 57.424L63.007 57.422L63.0077 47.425C63.008 43.4785 63.5406 40.5737 65.4087 38.391C67.2833 36.2008 70.588 34.6381 76.3905 33.6144L76.3895 33.6134C80.3107 32.9319 84.7832 32.5243 89.4726 32.505ZM74.5541 39.9404C71.5007 39.9404 69.0245 42.3861 68.8916 45.4078L68.8857 45.6988C68.8855 48.855 71.4237 51.4185 74.5533 51.419C77.683 51.4192 80.2224 48.8559 80.2227 45.6996C80.2228 42.5483 77.6886 39.9407 74.5541 39.9404Z" fill="black" stroke="#252525"/>
</svg>
