<svg width="262" height="96" viewBox="0 0 262 96" fill="none" xmlns="http://www.w3.org/2000/svg">
<path d="M61.5235 27.0861C61.5235 30.0163 61.069 32.6143 60.1601 34.88C59.2512 37.1457 57.9975 39.1244 56.3991 40.8161C54.832 42.5078 52.9828 43.9427 50.8515 45.1209C48.7203 46.299 46.4323 47.2657 43.9877 48.0209C41.5743 48.7459 39.067 49.2897 36.4656 49.6522C33.8642 49.9845 31.3099 50.1658 28.8025 50.196V71.3121H6.89453C6.89453 64.3942 6.9102 57.5065 6.94154 50.6491C6.97289 43.7917 7.0199 36.8738 7.08258 29.8955C7.14527 26.21 7.16094 22.5245 7.1296 18.839C7.09825 15.1535 7.17661 11.4378 7.36466 7.69188C11.3764 6.54393 15.3882 5.68298 19.3999 5.109C23.4117 4.53503 27.5488 4.24805 31.8113 4.24805C34.2247 4.24805 36.638 4.44441 39.0513 4.83712C41.4646 5.19963 43.7683 5.78871 45.9622 6.60435C48.1875 7.41999 50.2404 8.4471 52.1209 9.68567C54.0327 10.894 55.6782 12.3441 57.0572 14.0358C58.4363 15.7275 59.5176 17.6609 60.3011 19.8359C61.116 21.9807 61.5235 24.3975 61.5235 27.0861ZM40.6498 28.6267C40.6498 26.6631 40.0229 25.1376 38.7692 24.0501C37.5469 22.9323 35.9485 22.3735 33.9739 22.3735C33.3157 22.3735 32.6262 22.4339 31.9054 22.5547C31.2158 22.6453 30.5577 22.7662 29.9308 22.9172L29.3667 36.1488C29.8055 36.2092 30.2286 36.2394 30.636 36.2394C31.0435 36.2394 31.4666 36.2394 31.9054 36.2394C33.0337 36.2394 34.115 36.0581 35.1492 35.6956C36.2149 35.3331 37.1551 34.8196 37.97 34.155C38.7849 33.4602 39.4274 32.6596 39.8975 31.7534C40.399 30.8169 40.6498 29.7747 40.6498 28.6267Z" fill="#0D83A1"/>
<path d="M50.933 23.6963C50.933 26.3738 50.5328 28.7477 49.7323 30.818C48.9318 32.8882 47.8277 34.6963 46.4199 36.242C45.0397 37.7878 43.4111 39.099 41.5341 40.1755C39.657 41.2521 37.642 42.1354 35.4889 42.8255C33.3635 43.4879 31.1552 43.9848 28.8641 44.316C26.573 44.6197 24.3234 44.7853 22.1151 44.8129V64.1077H2.82031C2.82031 57.7865 2.83411 51.4929 2.86172 45.2269C2.88932 38.961 2.93073 32.6398 2.98593 26.2634C3.04114 22.8958 3.05494 19.5282 3.02734 16.1606C2.99973 12.793 3.06874 9.39773 3.23436 5.97491C6.7676 4.92598 10.3008 4.13929 13.8341 3.61482C17.3673 3.09036 21.011 2.82813 24.765 2.82813C26.8905 2.82813 29.0159 3.00755 31.1414 3.36639C33.2669 3.69763 35.2957 4.2359 37.2279 4.98119C39.1878 5.72648 40.9958 6.665 42.652 7.79674C44.3358 8.90087 45.785 10.2258 46.9995 11.7716C48.2141 13.3174 49.1664 15.084 49.8565 17.0715C50.5742 19.0313 50.933 21.2396 50.933 23.6963ZM32.5492 25.1041C32.5492 23.3098 31.9971 21.9159 30.893 20.9222C29.8164 19.9008 28.4087 19.3902 26.6696 19.3902C26.09 19.3902 25.4827 19.4454 24.8478 19.5558C24.2405 19.6386 23.6609 19.749 23.1088 19.887L22.6119 31.9773C22.9984 32.0325 23.371 32.0601 23.7299 32.0601C24.0887 32.0601 24.4614 32.0601 24.8478 32.0601C25.8415 32.0601 26.7939 31.8945 27.7048 31.5633C28.6433 31.232 29.4714 30.7628 30.1891 30.1555C30.9068 29.5206 31.4726 28.7891 31.8867 27.961C32.3283 27.1053 32.5492 26.153 32.5492 25.1041Z" fill="#FDD100"/>
<path d="M50.9393 23.6948C50.9393 21.2381 50.5805 19.0298 49.8628 17.0699C49.1727 15.0825 48.2204 13.3159 47.0058 11.7701C45.7913 10.2243 44.3421 8.89934 42.6583 7.7952C41.0021 6.66346 39.1941 5.72495 37.2342 4.97965C35.302 4.23436 33.2731 3.6961 31.1477 3.36485C29.0222 3.00601 26.8968 2.82659 24.7713 2.82659C21.0172 2.82659 17.3736 3.08882 13.8403 3.61329C10.3071 4.13775 6.77387 4.92445 3.24064 5.97338C3.07502 9.3962 3.00601 12.7914 3.03361 16.159C3.06122 19.5266 3.04742 22.8943 2.99221 26.2619C2.937 32.6383 2.8956 38.9594 2.86799 45.2254C2.84039 51.4914 2.82659 57.785 2.82659 64.1061H22.1214V44.8114C24.3296 44.7838 26.5793 44.6181 28.8704 44.3145C31.1615 43.9833 33.3697 43.4864 35.4952 42.8239C37.6483 42.1338 39.6633 41.2505 41.5404 40.174C43.4174 39.0975 45.046 37.7863 46.4262 36.2405C47.8339 34.6947 48.9381 32.8867 49.7386 30.8164C50.5391 28.7462 50.9393 26.3723 50.9393 23.6948ZM29.7289 25.1025C29.7289 23.9287 29.3945 23.369 29.0084 23.0215L28.9808 22.9967L28.9538 22.9713C28.4916 22.5328 27.8241 22.2152 26.6759 22.2152C26.4179 22.2152 26.1415 22.231 25.8459 22.2652L25.5616 29.1889C25.9718 29.1384 26.365 29.0437 26.7452 28.9055L26.7576 28.9008L26.7703 28.8963C27.3919 28.6769 27.9076 28.3811 28.3429 28.0183C28.7888 27.6195 29.1219 27.1811 29.3648 26.6955L29.3728 26.6792L29.3813 26.663C29.598 26.2431 29.7289 25.7414 29.7289 25.1025ZM32.5554 25.1025C32.5554 26.1515 32.3346 27.1038 31.893 27.9595C31.4789 28.7876 30.913 29.5191 30.1954 30.154C29.4777 30.7612 28.6496 31.2305 27.7111 31.5617C26.8001 31.893 25.8478 32.0586 24.8541 32.0586H23.7362C23.3773 32.0586 23.0047 32.031 22.6182 31.9758L23.1151 19.8855C23.6672 19.7475 24.2468 19.6371 24.8541 19.5542C25.489 19.4438 26.0963 19.3886 26.6759 19.3886C28.4149 19.3886 29.8227 19.8993 30.8992 20.9206C32.0034 21.9143 32.5554 23.3083 32.5554 25.1025ZM53.7659 23.6948C53.7659 26.6509 53.3242 29.381 52.375 31.8358C51.4563 34.2116 50.1732 36.3241 48.516 38.1438L48.5157 38.1435C46.9288 39.9163 45.0669 41.41 42.9467 42.626C40.8899 43.8056 38.6915 44.7675 36.3578 45.5155L36.347 45.5191L36.3363 45.5224C34.0626 46.2311 31.7079 46.7603 29.2748 47.1121L29.2417 47.1165C27.7975 47.3079 26.3662 47.4467 24.948 47.5336V66.9327H0L0 64.1061C0 57.7809 0.0137833 51.4831 0.0414051 45.213C0.0690265 38.9429 0.11038 32.6176 0.16562 26.2373L0.165896 26.2265V26.2155C0.220723 22.8711 0.234439 19.5266 0.207025 16.1822C0.178978 12.7604 0.249213 9.31185 0.417363 5.83674L0.514251 3.83439L2.43628 3.26355C6.093 2.17797 9.75625 1.36195 13.4252 0.817337C17.1026 0.271471 20.8853 0 24.7713 0C27.0449 0 29.3159 0.191169 31.583 0.571942L32.0164 0.642331C34.1774 1.00753 36.2572 1.57321 38.2514 2.34242L38.2511 2.3427C40.405 3.16281 42.4083 4.20085 44.2529 5.46133H44.2527C46.1675 6.72358 47.8309 8.24519 49.2285 10.0239C50.6403 11.8208 51.7326 13.8533 52.5171 16.098L52.5952 16.3161C53.3914 18.5781 53.7659 21.0492 53.7659 23.6948Z" fill="black"/>
<path d="M95.497 26.1352L83.1284 56.6103C83.1284 56.6103 73.6115 82.3099 56.9187 82.8124C40.2259 83.3149 37.0883 56.8213 48.2906 64.7284C59.4929 72.6354 67.023 54.6221 67.023 54.6221L48.8502 27.5393L66.0659 24.5137C66.0659 24.5137 73.3295 38.5133 74.8554 38.5563C76.3813 38.5994 79.8512 25.4495 79.8512 25.4495L95.497 26.1352Z" fill="#0D83A1"/>
<path d="M75.7842 20.751L90.4941 21.3877L92.3281 21.4668L91.582 23.1445L78.1699 53.2744C78.1663 53.2844 78.1629 53.2965 78.1582 53.3096C78.1398 53.3604 78.1126 53.4342 78.0771 53.5293C78.0061 53.7199 77.901 53.9963 77.7627 54.3457C77.4861 55.0445 77.0754 56.0369 76.5381 57.2207C75.4653 59.5842 73.877 62.7305 71.8193 65.834C69.7675 68.9287 67.2114 72.0381 64.1865 74.2754C61.149 76.5221 57.5747 77.9323 53.5586 77.4707C49.5967 77.0152 46.1564 74.1197 43.8145 71.5801C42.6175 70.2821 41.6508 69.0137 40.9834 68.0713C40.649 67.5991 40.3877 67.2058 40.209 66.9287C40.1197 66.7902 40.0503 66.68 40.0029 66.6035C39.9794 66.5655 39.961 66.5357 39.9482 66.5146C39.9419 66.5041 39.9372 66.4953 39.9336 66.4893C39.9318 66.4863 39.9298 66.4842 39.9287 66.4824L39.9277 66.4805L39.9268 66.4795C39.9266 66.4792 39.9266 66.4785 41 65.8379L39.9268 66.4785L39.2295 65.3105L40.4522 64.7139L49.6162 60.25L50.4248 59.8564L51.0547 60.498C53.0532 62.532 54.4743 62.6775 55.4707 62.3398C56.6388 61.9439 57.7798 60.7221 58.8076 58.9385C59.8062 57.2056 60.5637 55.1788 61.0752 53.5557C61.3291 52.75 61.5181 52.0557 61.6436 51.5654C61.6684 51.4684 61.6892 51.379 61.709 51.2988L44.6445 25.1396L43.5176 23.4111L45.5713 23.2119L59.251 21.8887L60.1719 21.7998L60.5254 22.6533L60.5264 22.6543L60.5264 22.6553C60.5269 22.6565 60.5282 22.6585 60.5293 22.6611C60.5316 22.6665 60.5344 22.6754 60.5391 22.6865C60.5485 22.7091 60.563 22.7432 60.582 22.7881C60.6204 22.8784 60.6775 23.0126 60.752 23.1836C60.9008 23.5257 61.1184 24.016 61.3906 24.6055C61.9362 25.7869 62.6981 27.3559 63.5664 28.9199C64.4403 30.494 65.3967 32.0169 66.3271 33.1328C66.7928 33.6912 67.2205 34.1085 67.5947 34.3789C67.9805 34.6575 68.2088 34.7067 68.2998 34.708C68.3338 34.7085 68.5052 34.6929 68.835 34.416C69.1578 34.1448 69.5269 33.7095 69.9268 33.1074C70.7243 31.9064 71.5056 30.2516 72.2002 28.5303C72.8895 26.8221 73.4713 25.1051 73.8818 23.8105C74.0867 23.1645 74.2486 22.6263 74.3584 22.251C74.4133 22.0634 74.4554 21.9166 74.4834 21.8174C74.4974 21.7679 74.5077 21.73 74.5146 21.7051C74.5181 21.6928 74.5208 21.6837 74.5225 21.6777C74.5233 21.6748 74.5231 21.6722 74.5234 21.6709L74.5244 21.6699L74.7881 20.708L75.7842 20.751Z" fill="#FDD100" stroke="black" stroke-width="2.5"/>
<path d="M128.548 12.3631L126.115 30.7001C125.275 30.4683 124.435 30.309 123.595 30.2221C122.755 30.1352 121.914 30.0917 121.074 30.0917C118.931 30.0917 116.888 30.3814 114.948 30.9608C113.007 31.5112 111.283 32.3658 109.777 33.5245C108.299 34.6832 107.112 36.1317 106.214 37.8698C105.345 39.6079 104.91 41.6501 104.91 43.9966C104.91 45.5029 105.142 46.8065 105.605 47.9073C106.098 49.0081 106.778 49.9206 107.648 50.6448C108.517 51.369 109.545 51.905 110.733 52.2526C111.92 52.6002 113.224 52.774 114.643 52.774C115.715 52.774 116.831 52.6581 117.989 52.4264C119.148 52.1946 120.292 51.8905 121.422 51.5139C122.552 51.1373 123.653 50.7028 124.724 50.2103C125.796 49.7178 126.781 49.2109 127.679 48.6895L125.941 69.1122C124.811 69.6916 123.58 70.213 122.248 70.6765C120.944 71.111 119.597 71.5021 118.207 71.8497C116.816 72.1684 115.426 72.4146 114.035 72.5884C112.645 72.7622 111.312 72.8491 110.037 72.8491C106.358 72.8491 102.926 72.1684 99.7391 70.8069C96.5526 69.4454 93.7861 67.5769 91.4397 65.2015C89.0932 62.8261 87.2392 60.0306 85.8777 56.8151C84.5452 53.5707 83.8789 50.08 83.8789 46.343C83.8789 41.3894 84.5886 36.7255 86.0081 32.3513C87.4275 27.9481 89.5133 24.0953 92.2653 20.7929C95.0173 17.4905 98.4211 14.8833 102.477 12.9714C106.561 11.0595 111.254 10.1035 116.555 10.1035C118.554 10.1035 120.596 10.2628 122.682 10.5815C124.797 10.9001 126.752 11.494 128.548 12.3631Z" fill="#0D83A1"/>
<path d="M126.422 7.04066L124.138 24.2513C123.349 24.0338 122.561 23.8843 121.772 23.8027C120.984 23.7211 120.195 23.6803 119.407 23.6803C117.395 23.6803 115.478 23.9522 113.656 24.496C111.835 25.0126 110.217 25.8147 108.803 26.9022C107.416 27.9898 106.302 29.3492 105.459 30.9806C104.643 32.6119 104.235 34.5288 104.235 36.7311C104.235 38.1449 104.453 39.3684 104.888 40.4016C105.35 41.4348 105.989 42.2912 106.805 42.9709C107.62 43.6507 108.586 44.1537 109.7 44.4799C110.815 44.8062 112.039 44.9693 113.371 44.9693C114.377 44.9693 115.424 44.8606 116.511 44.6431C117.599 44.4256 118.673 44.1401 119.733 43.7866C120.793 43.4332 121.827 43.0253 122.833 42.5631C123.839 42.1009 124.763 41.6251 125.606 41.1357L123.975 60.3039C122.914 60.8477 121.759 61.3371 120.508 61.7721C119.284 62.18 118.02 62.547 116.715 62.8733C115.41 63.1724 114.105 63.4035 112.8 63.5666C111.495 63.7297 110.244 63.8113 109.048 63.8113C105.595 63.8113 102.373 63.1724 99.3821 61.8945C96.3913 60.6166 93.7947 58.8629 91.5924 56.6334C89.3901 54.4039 87.65 51.7802 86.3721 48.7622C85.1214 45.717 84.4961 42.4408 84.4961 38.9334C84.4961 34.2841 85.1622 29.9066 86.4945 25.8011C87.8267 21.6684 89.7844 18.0522 92.3673 14.9527C94.9503 11.8531 98.145 9.40611 101.951 7.61163C105.785 5.81716 110.19 4.91992 115.165 4.91992C117.041 4.91992 118.958 5.06946 120.916 5.36854C122.901 5.66762 124.736 6.22499 126.422 7.04066Z" fill="#FDD100"/>
<path d="M104.238 36.732C104.238 34.5297 104.646 32.6129 105.462 30.9815C106.305 29.3502 107.419 27.9907 108.806 26.9032C110.22 25.8156 111.838 25.0136 113.659 24.497C115.481 23.9532 117.398 23.6813 119.41 23.6813C120.198 23.6813 120.987 23.7221 121.775 23.8036C122.564 23.8852 123.352 24.0347 124.141 24.2523L126.424 7.04162C124.739 6.22595 122.903 5.66857 120.919 5.36949C118.961 5.07041 117.044 4.92087 115.168 4.92087C110.193 4.92087 105.788 5.81811 101.954 7.61258C98.1479 9.40706 94.9532 11.8541 92.3702 14.9536C89.7873 18.0532 87.8297 21.6693 86.4974 25.802C85.1651 29.9076 84.499 34.285 84.499 38.9343C84.499 42.4417 85.1243 45.718 86.375 48.7631C87.6529 51.7811 89.393 54.4049 91.5953 56.6344C93.7976 58.8639 96.3942 60.6176 99.385 61.8954C102.376 63.1733 105.598 63.8123 109.051 63.8123C110.247 63.8123 111.498 63.7307 112.803 63.5676C114.108 63.4044 115.413 63.1733 116.718 62.8742C118.023 62.548 119.287 62.1809 120.511 61.7731C121.762 61.3381 122.917 60.8487 123.977 60.3049L125.609 41.1366C124.766 41.626 123.841 42.1018 122.835 42.5641C121.83 43.0263 120.796 43.4341 119.736 43.7876C118.676 44.141 117.602 44.4265 116.514 44.644C115.426 44.8615 114.38 44.9703 113.374 44.9703V42.1861C114.179 42.1861 115.042 42.0991 115.968 41.914C116.942 41.7193 117.904 41.4634 118.856 41.1461C119.821 40.8244 120.76 40.4537 121.673 40.0341C122.609 39.604 123.454 39.1685 124.211 38.729L128.836 36.043L126.621 62.0781L125.248 62.7823C124.061 63.3911 122.785 63.93 121.425 64.4028L121.408 64.4085L121.391 64.4145C120.097 64.8458 118.765 65.2324 117.393 65.5752L117.367 65.582L117.34 65.588C115.945 65.9076 114.548 66.1553 113.148 66.3302C111.74 66.5063 110.373 66.5964 109.051 66.5964C105.245 66.5964 101.649 65.8902 98.2912 64.4556C94.9812 63.0413 92.0802 61.0869 89.6146 58.5909C87.1533 56.0992 85.2201 53.1763 83.8111 49.8488L83.8054 49.8349L83.7997 49.8208C82.4023 46.4185 81.7148 42.7805 81.7148 38.9343C81.7148 34.0157 82.4202 29.3463 83.8492 24.9426C85.2824 20.4989 87.4044 16.5637 90.2313 13.1714C93.0852 9.74666 96.6097 7.05422 100.767 5.09434L100.774 5.09108C105.036 3.09591 109.856 2.13672 115.168 2.13672C117.193 2.13672 119.25 2.29798 121.339 2.61715L121.339 2.61742C123.579 2.95543 125.683 3.59006 127.637 4.53533L129.449 5.41218L126.48 27.7857L123.4 26.9361C122.756 26.7583 122.119 26.6383 121.489 26.5731C120.795 26.5013 120.102 26.4654 119.41 26.4654C117.652 26.4654 116.004 26.7025 114.456 27.1647L114.437 27.1702L114.419 27.1756C112.922 27.6 111.632 28.245 110.518 29.0987C109.467 29.9242 108.61 30.9592 107.946 32.239C107.363 33.4096 107.022 34.8799 107.022 36.732C107.022 37.8535 107.194 38.6858 107.447 39.2981C107.746 39.9537 108.129 40.4491 108.59 40.8329C109.086 41.246 109.702 41.5796 110.485 41.8087C111.312 42.0507 112.268 42.1861 113.374 42.1861V44.9703C112.041 44.9703 110.818 44.8071 109.703 44.4809C108.588 44.1546 107.623 43.6516 106.808 42.9719C105.992 42.2922 105.353 41.4357 104.891 40.4025C104.456 39.3693 104.238 38.1458 104.238 36.732Z" fill="black"/>
<path d="M171.598 45.4431C171.598 47.7214 171.378 49.9246 170.937 52.0527C170.496 54.1558 169.856 56.1336 169.016 57.9863C168.197 59.839 167.189 61.5415 165.992 63.0937C164.816 64.621 163.483 65.9354 161.992 67.037C160.522 68.1386 158.916 69.0023 157.173 69.6282C155.43 70.2291 153.582 70.5295 151.63 70.5295C149.74 70.5295 147.934 70.2416 146.212 69.6658C144.511 69.09 142.915 68.2888 141.425 67.2623C139.934 66.2108 138.579 64.959 137.362 63.5068C136.165 62.0297 135.136 60.4023 134.275 58.6248C133.435 56.8221 132.774 54.8943 132.291 52.8414C131.829 50.7884 131.598 48.6478 131.598 46.4195C131.598 44.2414 131.818 42.1133 132.259 40.0353C132.7 37.9322 133.33 35.9543 134.149 34.1016C134.989 32.2489 135.997 30.5465 137.173 28.9942C138.348 27.442 139.661 26.1025 141.11 24.9759C142.58 23.8492 144.165 22.973 145.866 22.3471C147.566 21.7212 149.362 21.4082 151.252 21.4082C154.296 21.4082 157.068 21.9715 159.567 23.0982C162.086 24.2248 164.228 25.8396 165.992 27.9427C167.777 30.0207 169.152 32.5494 170.118 35.5287C171.105 38.483 171.598 41.7878 171.598 45.4431ZM157.614 46.4195C157.614 45.343 157.477 44.304 157.204 43.3025C156.952 42.276 156.575 41.3747 156.071 40.5986C155.567 39.7974 154.937 39.159 154.181 38.6833C153.446 38.1826 152.595 37.9322 151.63 37.9322C150.643 37.9322 149.761 38.145 148.984 38.5706C148.207 38.9962 147.535 39.5846 146.968 40.3357C146.422 41.0617 146.002 41.9255 145.708 42.927C145.414 43.9034 145.267 44.9424 145.267 46.044C145.267 47.0955 145.393 48.147 145.645 49.1986C145.897 50.2501 146.275 51.2015 146.779 52.0527C147.283 52.9039 147.902 53.5924 148.637 54.1182C149.393 54.644 150.265 54.9069 151.252 54.9069C152.238 54.9069 153.12 54.6815 153.897 54.2309C154.695 53.7552 155.367 53.1293 155.913 52.3531C156.459 51.552 156.879 50.6382 157.173 49.6117C157.467 48.5852 157.614 47.5211 157.614 46.4195Z" fill="#0D83A1"/>
<path d="M166.24 41.5278C166.24 43.7144 166.028 45.8288 165.605 47.8712C165.182 49.8896 164.568 51.7878 163.762 53.5658C162.976 55.3439 162.009 56.9778 160.861 58.4676C159.733 59.9333 158.454 61.1947 157.023 62.252C155.613 63.3092 154.072 64.1382 152.4 64.7389C150.728 65.3155 148.955 65.6039 147.082 65.6039C145.269 65.6039 143.536 65.3275 141.884 64.7749C140.253 64.2223 138.722 63.4534 137.291 62.4682C135.861 61.459 134.562 60.2576 133.393 58.864C132.245 57.4464 131.258 55.8845 130.432 54.1786C129.626 52.4485 128.991 50.5984 128.528 48.6281C128.085 46.6578 127.863 44.6034 127.863 42.4649C127.863 40.3745 128.075 38.3321 128.498 36.3378C128.921 34.3194 129.525 32.4212 130.311 30.6431C131.117 28.8651 132.084 27.2312 133.212 25.7414C134.34 24.2517 135.599 22.9662 136.989 21.8849C138.399 20.8037 139.92 19.9627 141.552 19.362C143.184 18.7613 144.906 18.4609 146.719 18.4609C149.64 18.4609 152.299 19.0016 154.697 20.0828C157.114 21.1641 159.169 22.7139 160.861 24.7322C162.573 26.7266 163.893 29.1534 164.82 32.0127C165.766 34.848 166.24 38.0197 166.24 41.5278ZM152.823 42.4649C152.823 41.4317 152.692 40.4345 152.43 39.4734C152.189 38.4883 151.826 37.6233 151.343 36.8784C150.859 36.1095 150.255 35.4968 149.529 35.0403C148.824 34.5597 148.008 34.3194 147.082 34.3194C146.135 34.3194 145.289 34.5237 144.544 34.9321C143.798 35.3406 143.153 35.9053 142.61 36.6261C142.086 37.3229 141.683 38.1519 141.401 39.113C141.119 40.0501 140.978 41.0473 140.978 42.1045C140.978 43.1137 141.099 44.1228 141.34 45.132C141.582 46.1412 141.945 47.0543 142.428 47.8712C142.912 48.6882 143.506 49.3489 144.211 49.8535C144.936 50.3581 145.772 50.6104 146.719 50.6104C147.666 50.6104 148.512 50.3941 149.257 49.9616C150.023 49.5051 150.668 48.9044 151.191 48.1595C151.715 47.3906 152.118 46.5136 152.4 45.5285C152.682 44.5433 152.823 43.5221 152.823 42.4649Z" fill="#FDD100"/>
<path d="M166.24 41.5273C166.24 38.0193 165.767 34.8476 164.82 32.0123C163.893 29.1529 162.574 26.7261 160.862 24.7318C159.169 22.7134 157.114 21.1636 154.697 20.0824C152.3 19.0011 149.641 18.4605 146.72 18.4605C144.906 18.4605 143.184 18.7608 141.552 19.3615C139.921 19.9622 138.4 20.8032 136.989 21.8845C135.599 22.9657 134.34 24.2512 133.212 25.741C132.084 27.2307 131.117 28.8646 130.311 30.6427C129.526 32.4207 128.921 34.3189 128.498 36.3373C128.075 38.3316 127.864 40.374 127.864 42.4644C127.864 44.6029 128.085 46.6573 128.528 48.6276C128.992 50.5979 129.626 52.4481 130.432 54.1781C131.258 55.8841 132.245 57.4459 133.394 58.8635C134.562 60.2572 135.861 61.4586 137.292 62.4677C138.722 63.4529 140.253 64.2218 141.885 64.7744C143.537 65.3271 145.269 65.6034 147.082 65.6034C148.956 65.6034 150.728 65.3151 152.401 64.7384C154.073 64.1377 155.614 63.3087 157.024 62.2515C158.454 61.1943 159.733 59.9328 160.862 58.4671C162.01 56.9773 162.977 55.3434 163.762 53.5654C164.568 51.7873 165.183 49.8891 165.606 47.8707C166.029 45.8284 166.24 43.7139 166.24 41.5273ZM140.978 42.104C140.978 41.0468 141.119 40.0496 141.401 39.1125C141.683 38.1514 142.086 37.3224 142.61 36.6256C143.154 35.9048 143.799 35.3401 144.544 34.9317C145.289 34.5232 146.135 34.3189 147.082 34.3189C148.009 34.3189 148.825 34.5592 149.53 35.0398C150.255 35.4963 150.859 36.109 151.343 36.8779C151.826 37.6228 152.189 38.4878 152.431 39.473C152.693 40.4341 152.824 41.4312 152.824 42.4644C152.824 43.5217 152.683 44.5429 152.401 45.528C152.118 46.5132 151.716 47.3902 151.192 48.1591C150.668 48.9039 150.023 49.5046 149.258 49.9612C148.512 50.3937 147.666 50.6099 146.72 50.6099V48.1495C147.394 48.1495 147.922 47.998 148.347 47.7532C148.863 47.4436 149.273 47.0551 149.602 46.5903C149.959 46.062 150.243 45.4495 150.448 44.7329C150.656 44.0078 150.761 43.2555 150.761 42.4644C150.761 41.6836 150.662 40.9434 150.469 40.2334L150.46 40.1988L150.451 40.164C150.275 39.4477 150.024 38.8648 149.712 38.3842L149.702 38.3693L149.693 38.3542C149.395 37.8815 149.027 37.5056 148.567 37.2158L148.536 37.1965L148.506 37.1761C148.155 36.9365 147.701 36.7794 147.082 36.7794C146.387 36.7794 145.842 36.9282 145.405 37.1675C144.914 37.4366 144.499 37.8002 144.146 38.2679L144.146 38.2682C143.819 38.7029 143.548 39.2433 143.348 39.9254L143.346 39.9345L143.343 39.9439C143.146 40.5982 143.041 41.3125 143.041 42.104C143.041 42.8756 143.133 43.6574 143.324 44.4556C143.506 45.2122 143.771 45.8719 144.114 46.4519C144.432 46.9899 144.812 47.4102 145.26 47.734C145.63 47.9884 146.096 48.1495 146.72 48.1495V50.6099C145.773 50.6099 144.937 50.3576 144.211 49.853C143.506 49.3485 142.912 48.6877 142.429 47.8707C141.945 47.0538 141.583 46.1407 141.341 45.1315C141.099 44.1224 140.978 43.1132 140.978 42.104ZM168.303 41.5273C168.303 43.9049 168.073 46.2179 167.608 48.4609L167.608 48.4642L167.607 48.4676C167.145 50.6711 166.472 52.7546 165.587 54.7122L165.587 54.7125C164.718 56.679 163.648 58.4863 162.381 60.1308L162.381 60.131C161.127 61.7598 159.706 63.1617 158.121 64.3345L158.122 64.3347C156.547 65.5149 154.836 66.4331 152.995 67.0943L152.985 67.0982L152.973 67.102C151.102 67.7476 149.135 68.0639 147.082 68.0639C145.092 68.0639 143.171 67.7602 141.328 67.1436L141.324 67.1424L141.321 67.1414C139.53 66.5349 137.842 65.6879 136.26 64.5985L136.251 64.5921L136.241 64.5853C134.663 63.4717 133.226 62.1437 131.935 60.6034L131.91 60.5731C130.645 59.0112 129.556 57.2885 128.646 55.4086L128.637 55.3908L128.629 55.373C127.742 53.4697 127.047 51.4407 126.542 49.292L126.539 49.2788L126.536 49.2651C126.044 47.0771 125.801 44.8078 125.801 42.4644C125.801 40.1738 126.033 37.9285 126.498 35.7337C126.96 33.5334 127.622 31.452 128.486 29.4956L128.491 29.484L128.497 29.4727C129.38 27.5232 130.442 25.7281 131.681 24.0917C132.927 22.4468 134.321 21.0223 135.863 19.8236L135.868 19.8193L135.874 19.8147C137.445 18.6104 139.137 17.6757 140.944 17.0104C142.785 16.3328 144.713 16 146.72 16C149.853 16 152.762 16.5802 155.421 17.7786H155.421C158.093 18.9733 160.404 20.7061 162.32 22.9919H162.32C164.246 25.241 165.715 27.9576 166.736 31.1018L166.834 31.3995C167.825 34.485 168.303 37.8715 168.303 41.5273Z" fill="black"/>
<ellipse cx="147.095" cy="43.0388" rx="8.1186" ry="9.68338" fill="#FDD100"/>
<path d="M155.282 34.505L155.282 37.7717C155.282 40.3043 153.134 42.4382 150.681 42.438L143.319 42.4375C141.302 42.4373 139.632 44.1571 139.632 46.1758L139.631 53.1811C139.631 55.1736 141.37 56.3481 143.318 56.9199C145.649 57.6069 147.886 57.7277 150.675 56.9204C152.529 56.3856 154.362 55.3055 154.362 53.1821L154.362 50.377L146.999 50.3765L147 49.4431L158.043 49.4439C160.186 49.444 160.984 47.9549 161.73 45.716C162.497 43.4142 162.466 41.1962 161.731 38.2389C161.2 36.1099 160.187 34.5107 158.044 34.5105L155.282 34.505ZM151.143 52.2486C151.904 52.2486 152.524 52.8726 152.524 53.6434C152.524 54.4192 151.904 55.0484 151.143 55.0484C150.381 55.0483 149.761 54.4139 149.761 53.6432C149.756 52.8724 150.381 52.2485 151.143 52.2486Z" fill="#E2242B"/>
<path d="M146.845 26.6458C145.584 26.651 144.382 26.761 143.326 26.9444C140.207 27.4948 139.64 28.643 139.639 30.7666L139.639 33.5719L147.007 33.5724L147.007 34.5057L136.872 34.505C134.729 34.5048 132.854 35.7893 132.271 38.2327C131.593 41.0379 131.567 42.784 132.271 45.7099C132.79 47.8859 134.045 49.4381 136.188 49.4383L138.719 49.4385L138.719 46.0774C138.719 43.6496 140.825 41.5052 143.32 41.5054L150.677 41.5059C152.725 41.5061 154.364 39.823 154.364 37.7676L154.364 30.7676C154.365 28.7751 152.679 27.2754 150.678 26.9449C149.413 26.7351 148.1 26.6407 146.845 26.6458ZM142.859 28.9002C143.62 28.9002 144.24 29.5347 144.24 30.3055C144.24 31.0763 143.62 31.7002 142.858 31.7002C142.097 31.7001 141.477 31.0761 141.477 30.3053C141.472 29.5346 142.092 28.9001 142.859 28.9002Z" fill="black"/>
<path d="M213.97 55.4248C213.97 57.8202 213.938 60.1945 213.874 62.5475C213.832 64.8793 213.758 67.2324 213.652 69.6066L195.336 69.2886C195.972 65.5365 196.523 61.795 196.99 58.064C197.456 54.3119 197.689 50.528 197.689 46.7123C197.689 46.4367 197.679 45.9915 197.657 45.3768C197.636 44.762 197.594 44.0731 197.53 43.3099C197.467 42.5256 197.371 41.7306 197.244 40.9251C197.138 40.0983 196.979 39.3458 196.767 38.6674C196.576 37.9891 196.332 37.4379 196.036 37.014C195.76 36.5688 195.421 36.3462 195.018 36.3462C194.297 36.3462 193.683 36.5582 193.174 36.9822C192.686 37.4061 192.273 37.9573 191.934 38.6357C191.616 39.2928 191.361 40.0347 191.171 40.8615C190.98 41.6882 190.831 42.515 190.726 43.3417C190.641 44.1684 190.577 44.9528 190.535 45.6947C190.514 46.4155 190.503 47.009 190.503 47.4754C190.397 51.2275 190.312 54.9585 190.249 58.6682C190.185 62.3567 190.1 66.0876 189.994 69.861L173.777 70.5605C174.201 63.0775 174.604 55.6368 174.986 48.2385C175.388 40.8403 175.706 33.3996 175.94 25.9166L190.948 25.1534L190.821 30.2411C191.414 29.5203 192.05 28.842 192.729 28.206C193.428 27.5701 194.17 27.0295 194.955 26.5843C195.739 26.118 196.566 25.7576 197.435 25.5032C198.325 25.2276 199.258 25.0898 200.233 25.0898C202.035 25.0898 203.614 25.3866 204.971 25.9802C206.328 26.5737 207.493 27.3793 208.469 28.3968C209.444 29.4143 210.26 30.6226 210.917 32.0217C211.574 33.3996 212.104 34.8729 212.507 36.4416C212.91 38.0103 213.217 39.6532 213.429 41.3703C213.641 43.0661 213.779 44.7408 213.842 46.3943C213.927 48.0478 213.97 49.6482 213.97 51.1957C213.97 52.7432 213.97 54.1529 213.97 55.4248Z" fill="#0D83A1"/>
<path d="M209.001 48.5576C209.001 50.9531 208.969 53.3273 208.905 55.6803C208.863 58.0121 208.789 60.3652 208.683 62.7394L190.367 62.4214C191.003 58.6693 191.555 54.9278 192.021 51.1968C192.487 47.4447 192.72 43.6608 192.72 39.8451C192.72 39.5695 192.71 39.1243 192.689 38.5096C192.667 37.8948 192.625 37.2059 192.561 36.4427C192.498 35.6584 192.402 34.8634 192.275 34.0579C192.169 33.2312 192.01 32.4786 191.798 31.8003C191.608 31.1219 191.364 30.5708 191.067 30.1468C190.791 29.7016 190.452 29.479 190.049 29.479C189.329 29.479 188.714 29.691 188.205 30.115C187.718 30.539 187.304 31.0901 186.965 31.7685C186.647 32.4256 186.393 33.1676 186.202 33.9943C186.011 34.821 185.863 35.6478 185.757 36.4745C185.672 37.3013 185.608 38.0856 185.566 38.8275C185.545 39.5483 185.534 40.1418 185.534 40.6082C185.428 44.3603 185.343 48.0913 185.28 51.801C185.216 55.4895 185.131 59.2205 185.025 62.9938L168.809 63.6933C169.233 56.2103 169.635 48.7696 170.017 41.3714C170.42 33.9731 170.738 26.5324 170.971 19.0494L185.979 18.2863L185.852 23.3739C186.446 22.6531 187.082 21.9748 187.76 21.3388C188.46 20.7029 189.201 20.1623 189.986 19.7171C190.77 19.2508 191.597 18.8904 192.466 18.636C193.356 18.3604 194.289 18.2227 195.264 18.2227C197.066 18.2227 198.645 18.5194 200.002 19.113C201.359 19.7065 202.525 20.5121 203.5 21.5296C204.475 22.5471 205.291 23.7555 205.948 25.1545C206.605 26.5324 207.135 28.0057 207.538 29.5744C207.941 31.1431 208.248 32.786 208.46 34.5031C208.672 36.1989 208.81 37.8736 208.874 39.5271C208.958 41.1806 209.001 42.7811 209.001 44.3285C209.001 45.876 209.001 47.2857 209.001 48.5576Z" fill="#FDD100"/>
<path d="M190.552 39.8457C190.552 39.6105 190.543 39.1975 190.521 38.585C190.502 38.0127 190.462 37.3597 190.4 36.6235L190.4 36.6189C190.341 35.8911 190.252 35.1505 190.133 34.3971L190.128 34.3659L190.124 34.3345C190.032 33.6128 189.897 32.9868 189.729 32.4483L189.719 32.4186L189.711 32.3885C189.651 32.1745 189.588 31.9966 189.528 31.8497C189.324 32.0516 189.114 32.3325 188.916 32.7258C188.681 33.2134 188.478 33.7949 188.319 34.4831C188.147 35.2316 188.012 35.9782 187.916 36.723C187.837 37.4984 187.777 38.2299 187.737 38.9181C187.717 39.6156 187.707 40.1773 187.707 40.6089V40.6396L187.706 40.6701C187.6 44.4143 187.516 48.1373 187.452 51.8389C187.389 55.5355 187.304 59.2745 187.197 63.0555L187.141 65.0761L166.508 65.966L166.643 63.5712C167.067 56.0918 167.47 48.6548 167.851 41.2603V41.2571L167.852 41.2539C168.253 33.8727 168.571 26.4488 168.803 18.9824L168.866 16.9836L188.21 16L188.153 18.2969C188.403 18.133 188.657 17.977 188.916 17.8298C189.845 17.2818 190.827 16.8552 191.859 16.5533C192.956 16.2171 194.095 16.0526 195.266 16.0526C197.304 16.0526 199.191 16.3884 200.874 17.125C202.48 17.8274 203.886 18.7938 205.069 20.0283C206.22 21.2288 207.163 22.6336 207.91 24.2208L208.043 24.5052C208.702 25.9337 209.235 27.4448 209.643 29.0351C210.07 30.699 210.394 32.433 210.616 34.2353C210.835 35.9812 210.977 37.7083 211.044 39.4167L211.074 40.0471C211.14 41.5131 211.174 42.9405 211.174 44.3292V48.5583C211.174 50.9729 211.142 53.3668 211.078 55.7397C211.035 58.0847 210.96 60.4505 210.854 62.8369L210.759 64.947L187.808 64.5487L188.229 62.0594C188.86 58.3379 189.407 54.6275 189.869 50.9283C190.324 47.2662 190.552 43.5722 190.552 39.8457ZM192.723 39.8457C192.723 43.6614 192.489 47.4454 192.023 51.1975C191.557 54.9284 191.006 58.6699 190.37 62.4221L208.685 62.74C208.791 60.3658 208.865 58.0128 208.908 55.6809C208.971 53.3279 209.003 50.9537 209.003 48.5583V44.3292C209.003 42.7817 208.961 41.1812 208.876 39.5277C208.812 37.8743 208.674 36.1996 208.463 34.5037C208.251 32.7866 207.943 31.1437 207.54 29.5751C207.138 28.0064 206.608 26.5331 205.95 25.1552C205.293 23.7561 204.477 22.5478 203.502 21.5303C202.527 20.5127 201.361 19.7072 200.004 19.1136C198.648 18.5201 197.068 18.2233 195.266 18.2233C194.291 18.2233 193.359 18.3611 192.468 18.6367C191.599 18.891 190.772 19.2514 189.988 19.7178C189.204 20.163 188.462 20.7035 187.762 21.3395C187.084 21.9754 186.448 22.6538 185.854 23.3745L185.982 18.2869L170.973 19.05C170.74 26.5331 170.422 33.9737 170.019 41.372C169.638 48.7703 169.235 56.2109 168.811 63.694L185.028 62.9944C185.134 59.2211 185.218 55.4902 185.282 51.8016C185.346 48.0919 185.43 44.361 185.536 40.6089C185.536 40.1425 185.547 39.5489 185.568 38.8282C185.611 38.0862 185.674 37.3019 185.759 36.4752C185.865 35.6484 186.013 34.8217 186.204 33.9949C186.395 33.1682 186.649 32.4263 186.967 31.7691C187.306 31.0908 187.72 30.5396 188.207 30.1156C188.716 29.6917 189.331 29.4797 190.052 29.4797C190.454 29.4797 190.794 29.7023 191.069 30.1474C191.366 30.5714 191.61 31.1225 191.801 31.8009C192.013 32.4792 192.171 33.2318 192.277 34.0585C192.405 34.8641 192.5 35.659 192.564 36.4434C192.627 37.2065 192.67 37.8955 192.691 38.5102C192.712 39.125 192.723 39.5701 192.723 39.8457Z" fill="black"/>
<path d="M224.309 12.2332C224.869 1.39361 247.277 7.17071 261.949 14.2977C261.736 19.0148 260.588 28.8701 260.588 28.8701C260.588 28.8701 244.543 23.0574 243.253 28.5612C242.782 30.5742 243.253 33.8556 243.253 33.8556L259.69 34.0838L258.851 47.1104L244.143 47.5312L244.227 70.7269L222.964 71.1477L223.459 49.4232L213.91 49.8201V31.0326H223.879L224.309 12.2332Z" fill="#0D83A1"/>
<path d="M221.212 11.4815C220.812 1.08611 243.817 4.78902 257.594 11.4815C257.436 13.9543 257.29 16.4011 257.159 18.8212C257.027 21.2414 256.857 23.6881 256.647 26.1609C256.647 26.1609 240.775 20.5198 238.942 26.8005C238.398 28.6646 238.942 31.773 238.942 31.773L254.436 32.0012L253.648 44.2341L239.836 44.6288L239.915 66.4099L219.948 66.8046L220.413 46.4045L211.449 46.7764V29.1338H220.808L221.212 11.4815Z" fill="#FDD100"/>
<path d="M237.688 24.9137C240.803 19.0875 254.583 24.0373 254.583 24.0373C254.721 22.2441 254.839 20.4652 254.935 18.7005C255.04 16.7651 255.156 14.8131 255.278 12.8451C249.179 9.9988 245.495 9.15322 240.075 7.88281C234.654 6.6124 223.211 4.93452 223.405 12.9299L222.985 31.3607H213.676V44.4548L222.694 44.0808L222.226 64.5309L237.68 64.2253L237.601 42.465L251.555 42.0659L252.061 34.2281L236.715 33.9999C236.715 33.9999 235.974 28.1216 237.688 24.9137ZM238.942 31.773L254.436 32.0012L253.648 44.2341L239.836 44.6288L239.915 66.4099L219.948 66.8046L220.413 46.4045L211.449 46.7764V29.1338H220.808L221.212 11.4815C220.812 1.08611 243.817 4.78902 257.594 11.4815L257.367 15.1709C257.294 16.3943 257.225 17.6111 257.159 18.8212L257.053 20.6415C256.94 22.4665 256.805 24.3064 256.647 26.1609C256.647 26.1609 241.172 21.2061 239.339 27.4867C238.795 29.3508 238.942 31.773 238.942 31.773Z" fill="black"/>
<path d="M124.024 72.8519L261 71L254.979 94.1481L117 96L124.024 72.8519Z" fill="black"/>
<path d="M118 70.5L252.5 69L247 91H111L118 70.5Z" fill="#FDD100"/>
<path d="M241.057 82.1228C241.053 82.6298 240.96 83.0904 240.778 83.5046C240.597 83.9147 240.347 84.2661 240.029 84.5589C239.715 84.8475 239.342 85.0712 238.908 85.2301C238.475 85.3891 238.007 85.4667 237.504 85.463C237.093 85.46 236.721 85.4012 236.389 85.2866C236.062 85.172 235.768 85.014 235.508 84.8126C235.252 84.6113 235.031 84.3728 234.846 84.0972C234.661 83.8215 234.507 83.5233 234.385 83.2024C234.267 82.8816 234.18 82.5422 234.124 82.1844C234.069 81.8266 234.042 81.4649 234.045 81.0992C234.048 80.6504 234.085 80.2144 234.154 79.791C234.224 79.3635 234.329 78.9632 234.469 78.5902C234.613 78.2172 234.796 77.8736 235.018 77.5594C235.241 77.2452 235.505 76.977 235.81 76.7549C236.115 76.5327 236.463 76.3607 236.854 76.2389C237.25 76.1129 237.693 76.0517 238.183 76.0553C238.362 76.0566 238.545 76.0663 238.732 76.0842C238.919 76.0981 239.106 76.1244 239.292 76.1631C239.479 76.2019 239.659 76.2531 239.833 76.3167C240.012 76.3803 240.179 76.4605 240.337 76.5572L240.132 79.0118C239.838 78.8642 239.519 78.7517 239.174 78.6744C238.834 78.593 238.502 78.5511 238.178 78.5487C237.92 78.5468 237.698 78.5847 237.51 78.6623C237.322 78.7357 237.164 78.8426 237.034 78.9829C236.904 79.1233 236.801 79.2929 236.725 79.4918C236.653 79.6866 236.605 79.9044 236.583 80.1453C236.858 79.9894 237.152 79.8669 237.464 79.7777C237.777 79.6886 238.095 79.6452 238.419 79.6476C238.785 79.6502 239.129 79.7088 239.453 79.8234C239.776 79.938 240.055 80.1021 240.291 80.3157C240.53 80.5294 240.717 80.7884 240.852 81.0928C240.991 81.3972 241.059 81.7405 241.057 82.1228ZM238.687 82.2925C238.687 82.1637 238.659 82.0492 238.602 81.9491C238.549 81.8448 238.476 81.757 238.386 81.6857C238.299 81.6102 238.197 81.5534 238.081 81.5152C237.965 81.4727 237.849 81.4511 237.733 81.4503C237.616 81.4494 237.502 81.4694 237.389 81.5101C237.277 81.5467 237.175 81.602 237.083 81.6762C236.995 81.7462 236.922 81.8329 236.863 81.9364C236.808 82.0357 236.78 82.1498 236.779 82.2786C236.778 82.4033 236.804 82.5177 236.858 82.622C236.915 82.7222 236.987 82.8079 237.074 82.8792C237.165 82.9505 237.266 83.0073 237.378 83.0497C237.49 83.0879 237.604 83.1075 237.721 83.1083C237.837 83.1092 237.953 83.0913 238.07 83.0548C238.187 83.014 238.289 82.9587 238.377 82.8887C238.469 82.8187 238.542 82.7341 238.597 82.6347C238.656 82.5313 238.686 82.4172 238.687 82.2925Z" fill="black"/>
<path d="M232.333 79.5102C232.331 79.8427 232.268 80.1601 232.146 80.4626C232.023 80.7609 231.861 81.0423 231.659 81.3068C231.462 81.5672 231.236 81.8086 230.981 82.0312C230.73 82.2496 230.475 82.4472 230.216 82.624L232.186 82.6384L232.017 85.2303L226.184 84.9883L226.201 82.7194C226.422 82.6462 226.653 82.5585 226.895 82.4564C227.141 82.3502 227.381 82.2293 227.614 82.0939C227.852 81.9585 228.076 81.8064 228.285 81.6375C228.498 81.4687 228.684 81.2851 228.843 81.0868C229.007 80.8844 229.135 80.665 229.228 80.4288C229.326 80.1927 229.375 79.9375 229.377 79.6632C229.379 79.5053 229.351 79.3659 229.293 79.2449C229.24 79.124 229.164 79.0237 229.065 78.9441C228.966 78.8602 228.85 78.7991 228.717 78.7608C228.589 78.7183 228.449 78.6965 228.3 78.6954C228.175 78.6945 228.048 78.7081 227.919 78.7362C227.79 78.7602 227.663 78.7967 227.538 78.8457C227.413 78.8946 227.294 78.9561 227.182 79.0301C227.073 79.0999 226.975 79.1802 226.887 79.271L226.356 76.8236C226.511 76.671 226.689 76.5434 226.889 76.441C227.089 76.3386 227.3 76.257 227.52 76.1963C227.741 76.1314 227.966 76.0852 228.194 76.0578C228.423 76.0304 228.648 76.0175 228.868 76.0191C229.358 76.0227 229.815 76.1154 230.237 76.2971C230.66 76.4748 231.026 76.7205 231.335 77.0345C231.649 77.3443 231.893 77.7118 232.069 78.1369C232.249 78.5621 232.337 79.0199 232.333 79.5102Z" fill="black"/>
<path d="M224.547 81.0078C224.544 81.3735 224.5 81.7368 224.415 82.0977C224.333 82.4587 224.214 82.8048 224.058 83.1361C223.902 83.4675 223.71 83.7757 223.484 84.0608C223.262 84.3459 223.006 84.5934 222.718 84.8032C222.43 85.013 222.113 85.1769 221.767 85.2949C221.425 85.413 221.057 85.4705 220.662 85.4677C220.263 85.4647 219.892 85.4018 219.548 85.2788C219.204 85.1557 218.889 84.9872 218.604 84.7732C218.323 84.5592 218.071 84.308 217.849 84.0197C217.627 83.7313 217.44 83.4203 217.289 83.0868C217.137 82.7532 217.021 82.4054 216.941 82.0432C216.865 81.677 216.828 81.3131 216.83 80.9516C216.833 80.59 216.875 80.2267 216.957 79.8616C217.043 79.4965 217.164 79.1483 217.32 78.817C217.476 78.4857 217.667 78.1775 217.894 77.8924C218.12 77.6032 218.376 77.3536 218.66 77.1437C218.948 76.9339 219.265 76.77 219.611 76.652C219.961 76.534 220.333 76.4765 220.728 76.4794C221.123 76.4822 221.49 76.5452 221.83 76.6682C222.174 76.7912 222.488 76.9597 222.774 77.1737C223.059 77.3878 223.31 77.641 223.529 77.9335C223.751 78.2219 223.938 78.5328 224.089 78.8664C224.24 79.2 224.354 79.5499 224.43 79.9161C224.511 80.2824 224.55 80.6463 224.547 81.0078ZM221.915 81.1757C221.917 80.9928 221.893 80.789 221.845 80.5643C221.797 80.3395 221.721 80.1291 221.619 79.933C221.517 79.7369 221.385 79.5718 221.224 79.4377C221.063 79.3035 220.87 79.2356 220.645 79.234C220.417 79.2323 220.221 79.2974 220.058 79.4292C219.895 79.561 219.759 79.7241 219.649 79.9186C219.544 80.1132 219.466 80.3225 219.414 80.5465C219.363 80.7705 219.336 80.974 219.335 81.1568C219.334 81.3397 219.357 81.5435 219.405 81.7682C219.453 81.993 219.529 82.2034 219.631 82.3995C219.738 82.5956 219.872 82.7607 220.033 82.8948C220.194 83.029 220.389 83.0969 220.617 83.0986C220.842 83.1002 221.035 83.0351 221.198 82.9033C221.361 82.7716 221.496 82.6084 221.601 82.4138C221.706 82.2193 221.785 82.01 221.836 81.786C221.888 81.5619 221.914 81.3585 221.915 81.1757Z" fill="black"/>
<path d="M215.154 79.6079C215.151 79.9403 215.089 80.2578 214.966 80.5602C214.843 80.8586 214.681 81.14 214.48 81.4045C214.283 81.6648 214.056 81.9063 213.801 82.1288C213.55 82.3473 213.295 82.5449 213.036 82.7217L215.006 82.736L214.838 85.328L209.005 85.0859L209.021 82.8171C209.242 82.7439 209.473 82.6562 209.715 82.5541C209.961 82.4478 210.201 82.327 210.435 82.1915C210.673 82.0561 210.896 81.904 211.105 81.7352C211.318 81.5663 211.504 81.3828 211.664 81.1844C211.827 80.982 211.956 80.7627 212.049 80.5265C212.146 80.2903 212.196 80.0351 212.198 79.7609C212.199 79.603 212.171 79.4635 212.114 79.3426C212.06 79.2217 211.984 79.1214 211.885 79.0417C211.786 78.9579 211.67 78.8968 211.537 78.8584C211.409 78.8159 211.27 78.7941 211.12 78.793C210.996 78.7921 210.869 78.8057 210.74 78.8339C210.611 78.8579 210.484 78.8944 210.359 78.9433C210.234 78.9923 210.115 79.0537 210.002 79.1277C209.893 79.1976 209.795 79.2779 209.707 79.3687L209.177 76.9213C209.331 76.7686 209.509 76.6411 209.709 76.5387C209.909 76.4362 210.12 76.3547 210.341 76.2939C210.561 76.229 210.786 76.1829 211.015 76.1555C211.244 76.1281 211.468 76.1151 211.688 76.1168C212.179 76.1203 212.635 76.213 213.058 76.3948C213.48 76.5724 213.846 76.8182 214.156 77.1321C214.469 77.4419 214.714 77.8094 214.889 78.2346C215.069 78.6598 215.157 79.1175 215.154 79.6079Z" fill="black"/>
<path d="M201.164 80.5924C201.16 81.1741 201.081 81.6951 200.928 82.1553C200.775 82.6154 200.562 83.0232 200.29 83.3786C200.021 83.7299 199.701 84.0289 199.329 84.2755C198.958 84.5221 198.551 84.7249 198.109 84.8837C197.668 85.0384 197.197 85.1513 196.698 85.2225C196.203 85.2937 195.694 85.3274 195.17 85.3235C194.975 85.3221 194.784 85.3166 194.597 85.3069C194.41 85.2931 194.219 85.2751 194.024 85.2528L194.258 77.1385C194.716 76.9964 195.186 76.898 195.668 76.8433C196.155 76.7845 196.637 76.7569 197.115 76.7604C197.71 76.7647 198.255 76.8518 198.753 77.0217C199.25 77.1915 199.679 77.4398 200.038 77.7666C200.397 78.0892 200.674 78.4881 200.871 78.9633C201.071 79.4343 201.169 79.9774 201.164 80.5924ZM196.908 82.955C197.158 82.9194 197.385 82.8463 197.589 82.7356C197.798 82.6207 197.977 82.4808 198.128 82.3156C198.279 82.1463 198.395 81.956 198.475 81.7447C198.56 81.5292 198.603 81.3009 198.605 81.0599C198.607 80.8231 198.583 80.6026 198.535 80.3987C198.487 80.1905 198.407 80.0112 198.296 79.8608C198.185 79.7063 198.038 79.5847 197.856 79.4961C197.674 79.4033 197.45 79.3518 197.184 79.3416L196.908 82.955Z" fill="black"/>
<path d="M192.664 84.9393L189.569 85.3157L189.206 83.9042L187.784 83.8939L187.462 85.3003L184.286 84.9654L186.827 76.6809L190.294 76.5317L192.664 84.9393ZM188.995 81.9952L188.537 79.8226L188.06 81.9884L188.995 81.9952Z" fill="black"/>
<path d="M183.201 83.1894C183.198 83.5343 183.132 83.831 183.001 84.0794C182.874 84.3278 182.705 84.5385 182.491 84.7115C182.278 84.8844 182.032 85.026 181.753 85.1362C181.478 85.2422 181.19 85.3253 180.891 85.3855C180.591 85.4456 180.29 85.485 179.986 85.5035C179.687 85.5221 179.406 85.5305 179.144 85.5286C178.887 85.5267 178.619 85.5143 178.34 85.4915C178.066 85.4729 177.792 85.4397 177.518 85.392C177.244 85.3443 176.975 85.2821 176.709 85.2054C176.444 85.1245 176.193 85.025 175.957 84.9069L176.003 76.8784C176.237 76.7846 176.485 76.7012 176.747 76.6283C177.009 76.5512 177.276 76.4888 177.546 76.4409C177.821 76.3889 178.093 76.3514 178.364 76.3284C178.634 76.3013 178.896 76.2886 179.149 76.2905C179.444 76.2926 179.741 76.3135 180.04 76.3531C180.343 76.3927 180.634 76.4572 180.912 76.5465C181.189 76.6358 181.448 76.7519 181.688 76.895C181.928 77.0339 182.137 77.2058 182.314 77.4107C182.495 77.6156 182.635 77.8535 182.733 78.1244C182.835 78.3952 182.884 78.7073 182.882 79.0605C182.88 79.2932 182.845 79.5111 182.777 79.7142C182.709 79.9174 182.612 80.0995 182.487 80.2607C182.361 80.4218 182.208 80.5599 182.028 80.675C181.849 80.7859 181.647 80.8675 181.422 80.9199C181.692 80.9925 181.936 81.0982 182.155 81.2369C182.379 81.3757 182.566 81.5433 182.719 81.7397C182.875 81.9362 182.994 82.1573 183.076 82.4031C183.161 82.6489 183.203 82.911 183.201 83.1894ZM180.06 79.6134C180.061 79.4929 180.037 79.3909 179.988 79.3074C179.938 79.2198 179.877 79.1487 179.802 79.0941C179.732 79.0396 179.653 78.9995 179.566 78.974C179.483 78.9484 179.408 78.9354 179.342 78.9349C179.259 78.9343 179.178 78.9462 179.099 78.9705C179.019 78.9949 178.942 79.0234 178.867 79.0561L178.82 80.4396C178.915 80.4403 179.034 80.4329 179.175 80.4173C179.317 80.4017 179.452 80.3674 179.581 80.3143C179.715 80.2571 179.827 80.1748 179.92 80.0674C180.012 79.9559 180.059 79.8045 180.06 79.6134ZM179.16 81.639C179.04 81.6381 178.923 81.6497 178.811 81.6738L178.776 83.0948C178.838 83.1077 178.898 83.1206 178.956 83.1335C179.018 83.1423 179.079 83.1469 179.137 83.1473C179.224 83.1479 179.32 83.1403 179.424 83.1245C179.528 83.1044 179.626 83.0678 179.717 83.0144C179.809 82.9569 179.885 82.8806 179.944 82.7854C180.007 82.6903 180.039 82.5638 180.04 82.4059C180.041 82.248 180.011 82.1189 179.949 82.0187C179.892 81.9186 179.819 81.8412 179.733 81.7865C179.646 81.7277 179.55 81.6896 179.447 81.6722C179.343 81.6507 179.247 81.6396 179.16 81.639Z" fill="black"/>
<path d="M174.531 84.8104L171.436 85.1868L171.073 83.7753L169.652 83.765L169.33 85.1714L166.153 84.8365L168.694 76.552L172.161 76.4028L174.531 84.8104ZM170.862 81.8663L170.404 79.6937L169.927 81.8595L170.862 81.8663Z" fill="black"/>
<path d="M164.989 79.2687C164.986 79.5928 164.955 79.8876 164.895 80.1531C164.839 80.4145 164.75 80.6549 164.628 80.8743C164.506 81.0936 164.348 81.2961 164.156 81.4817C163.963 81.6673 163.731 81.8443 163.46 82.0127L164.924 84.6664L162.115 85.1945L161.175 82.5322L160.402 82.5514L160.271 85.1436L157.59 85.1241C157.618 84.1768 157.644 83.2336 157.667 82.2946C157.695 81.3556 157.724 80.4125 157.756 79.4652C157.768 78.9874 157.78 78.5138 157.792 78.0443C157.803 77.5747 157.823 77.1011 157.852 76.6234C158.143 76.5175 158.431 76.4303 158.714 76.3617C158.997 76.2931 159.28 76.2412 159.563 76.2058C159.85 76.1664 160.139 76.1414 160.43 76.1311C160.725 76.1166 161.026 76.1105 161.334 76.1128C161.808 76.1162 162.264 76.186 162.704 76.3222C163.147 76.4543 163.539 76.6525 163.877 76.9167C164.216 77.181 164.486 77.5092 164.687 77.9013C164.892 78.2934 164.992 78.7492 164.989 79.2687ZM162.195 79.4478C162.196 79.2732 162.172 79.1131 162.123 78.9673C162.079 78.8215 162.009 78.6963 161.914 78.5917C161.824 78.483 161.708 78.399 161.567 78.3398C161.43 78.2765 161.268 78.2442 161.081 78.2428C160.998 78.2422 160.917 78.2478 160.838 78.2597C160.759 78.2675 160.682 78.2814 160.607 78.3017L160.491 80.6197L160.64 80.6208C160.819 80.6221 161 80.6006 161.183 80.5562C161.37 80.5118 161.537 80.4424 161.683 80.3479C161.833 80.2534 161.955 80.1317 162.047 79.9828C162.144 79.8339 162.193 79.6555 162.195 79.4478Z" fill="black"/>
<path d="M155.991 80.1763C155.988 80.5378 155.96 80.8992 155.908 81.2603C155.197 81.3009 154.49 81.3705 153.787 81.4693C153.084 81.5639 152.381 81.6585 151.678 81.7531C151.784 82.0531 151.95 82.2933 152.178 82.4736C152.409 82.654 152.685 82.7453 153.005 82.7477C153.171 82.7489 153.352 82.719 153.548 82.6581C153.748 82.5973 153.946 82.5218 154.142 82.4318C154.338 82.3377 154.525 82.2372 154.705 82.1305C154.884 82.0238 155.039 81.9272 155.168 81.8409L154.848 84.6686C154.685 84.7921 154.508 84.8968 154.316 84.9826C154.129 85.0685 153.933 85.1377 153.729 85.1903C153.525 85.2428 153.319 85.2808 153.111 85.3042C152.903 85.3276 152.699 85.3386 152.5 85.3372C152.088 85.3342 151.713 85.2753 151.373 85.1606C151.033 85.0459 150.724 84.8879 150.447 84.6864C150.175 84.4807 149.935 84.24 149.729 83.9643C149.524 83.6885 149.353 83.388 149.219 83.0629C149.084 82.7378 148.983 82.3942 148.915 82.0322C148.847 81.6701 148.814 81.3042 148.817 80.9343C148.819 80.5479 148.858 80.1617 148.931 79.7757C149.004 79.3898 149.113 79.0186 149.257 78.6623C149.405 78.306 149.588 77.977 149.807 77.6752C150.029 77.3693 150.287 77.1031 150.579 76.8767C150.872 76.6503 151.201 76.474 151.568 76.3478C151.939 76.2217 152.346 76.1603 152.791 76.1635C153.161 76.1662 153.497 76.2206 153.8 76.3267C154.106 76.4287 154.378 76.5719 154.613 76.7565C154.853 76.937 155.059 77.1525 155.232 77.4031C155.409 77.6537 155.552 77.929 155.662 78.229C155.776 78.5249 155.859 78.8393 155.911 79.1721C155.966 79.5008 155.993 79.8356 155.991 80.1763ZM153.5 79.834C153.501 79.7176 153.489 79.5991 153.465 79.4784C153.441 79.3536 153.4 79.2411 153.343 79.1409C153.289 79.0408 153.217 78.9592 153.126 78.8962C153.035 78.8291 152.921 78.795 152.784 78.794C152.618 78.7928 152.47 78.8374 152.341 78.9279C152.215 79.0143 152.107 79.1257 152.014 79.2621C151.922 79.3944 151.846 79.5393 151.787 79.6968C151.727 79.8543 151.682 79.9994 151.652 80.1322L153.499 79.9711L153.5 79.834Z" fill="black"/>
<path d="M147.371 80.1998C147.367 80.7816 147.288 81.3025 147.135 81.7627C146.982 82.2229 146.769 82.6306 146.497 82.986C146.228 83.3373 145.908 83.6363 145.536 83.8829C145.165 84.1295 144.758 84.3323 144.317 84.4911C143.875 84.6458 143.404 84.7588 142.905 84.8299C142.41 84.9011 141.901 84.9348 141.377 84.931C141.182 84.9295 140.991 84.924 140.804 84.9143C140.617 84.9005 140.426 84.8825 140.231 84.8603L140.465 76.7459C140.923 76.6038 141.393 76.5054 141.876 76.4508C142.362 76.392 142.844 76.3643 143.322 76.3678C143.917 76.3721 144.462 76.4592 144.96 76.6291C145.457 76.7989 145.886 77.0473 146.245 77.374C146.604 77.6966 146.882 78.0955 147.078 78.5707C147.278 79.0418 147.376 79.5848 147.371 80.1998ZM143.115 82.5624C143.365 82.5269 143.592 82.4537 143.796 82.343C144.005 82.2282 144.184 82.0882 144.335 81.923C144.486 81.7538 144.602 81.5634 144.682 81.3521C144.767 81.1366 144.81 80.9084 144.812 80.6673C144.814 80.4305 144.79 80.2101 144.742 80.0061C144.694 79.7979 144.614 79.6187 144.503 79.4683C144.392 79.3137 144.245 79.1921 144.063 79.1035C143.881 79.0107 143.657 78.9592 143.391 78.949L143.115 82.5624Z" fill="black"/>
<path d="M139.068 76.6491L136.103 81.4148L136.165 84.9435L132.961 84.9201L133.061 81.4176L130.813 76.7759L133.995 76.4001L134.973 79.1002L136.077 76.4153L139.068 76.6491Z" fill="black"/>
<path d="M129.46 85.0158L126.342 85.1426L126.338 82.2627L124.905 82.2523L124.797 84.9818L122.005 84.9614L122.306 76.1992L125.272 76.358L125.052 80.8321L126.436 80.8422L126.483 76.0302L129.325 76.1258L129.46 85.0158Z" fill="black"/>
</svg>
